# xmcd CD database file
#
# Track frame offsets:
#	150
#	29485
#	50594
#	78341
#	95654
#	113932
#	141785
#	165691
#	191570
#	219150
#	237084
#	256646
#	274463
#	292869
#
# Disc length: 4298 seconds
#
# Revision: 1
# Processed by: cddbd v1.5.2PL0 Copyright (c) Steve Scherf et al.
# Submitted via: CDex 1.51
#
DISCID=c410c80e
DTITLE=Lady Gaga - Born This Way: The Remix
DYEAR=2011
DGENRE=Dance
TTITLE0=Born This Way [Zedd Remix]
TTITLE1=Judas [Goldfrapp Remix]
TTITLE2=The Edge Of Glory [Foster The People Remix]
TTITLE3=Yoü And I [Wild Beasts Remix]
TTITLE4=Marry The Night [The Weeknd and Illangelo Remix]
TTITLE5=Black Jesus and Amen Fashion [Michael Woods Remix]
TTITLE6=Bloody Mary [The Horrors Remix]
TTITLE7=Scheiße [Guena LG Club Remix]
TTITLE8=Americano [Gregori Klosman Remix]
TTITLE9=Electric Chapel [Two Door Cinema Club Remix]
TTITLE10=Yoü And I [Metronomy Remix]
TTITLE11=Judas [Hurts Remix]
TTITLE12=Born This Way [Twin Shadow Remix]
TTITLE13=The Edge Of Glory [Sultan and Ned Shepard Remix]
EXTD=YEAR: 2011
EXTT0=
EXTT1=
EXTT2=
EXTT3=
EXTT4=
EXTT5=
EXTT6=
EXTT7=
EXTT8=
EXTT9=
EXTT10=
EXTT11=
EXTT12=
EXTT13=
PLAYORDER=
